solid OpenSCAD_Model
  facet normal -1 0 0
    outer loop
      vertex -24.3 -17.8 -2.5
      vertex -24.3 17.8 2.5
      vertex -24.3 17.8 -2.5
    endloop
  endfacet
  facet normal -1 -0 0
    outer loop
      vertex -24.3 17.8 2.5
      vertex -24.3 -17.8 -2.5
      vertex -24.3 -17.8 2.5
    endloop
  endfacet
  facet normal 0 0 1
    outer loop
      vertex 24.3 17.8 2.5
      vertex 23.5 17 2.5
      vertex 24.3 -17.8 2.5
    endloop
  endfacet
  facet normal 0 0 1
    outer loop
      vertex 24.3 17.8 2.5
      vertex -23.5 17 2.5
      vertex 23.5 17 2.5
    endloop
  endfacet
  facet normal 0 0 1
    outer loop
      vertex -23.5 17 2.5
      vertex -24.3 17.8 2.5
      vertex -23.5 -17 2.5
    endloop
  endfacet
  facet normal -0 0 1
    outer loop
      vertex -24.3 17.8 2.5
      vertex -23.5 17 2.5
      vertex 24.3 17.8 2.5
    endloop
  endfacet
  facet normal -0 0 1
    outer loop
      vertex 23.5 -17 2.5
      vertex 24.3 -17.8 2.5
      vertex 23.5 17 2.5
    endloop
  endfacet
  facet normal -0 0 1
    outer loop
      vertex -23.5 -17 2.5
      vertex 24.3 -17.8 2.5
      vertex 23.5 -17 2.5
    endloop
  endfacet
  facet normal 0 0 1
    outer loop
      vertex -23.5 -17 2.5
      vertex -24.3 -17.8 2.5
      vertex 24.3 -17.8 2.5
    endloop
  endfacet
  facet normal 0 0 1
    outer loop
      vertex -24.3 -17.8 2.5
      vertex -23.5 -17 2.5
      vertex -24.3 17.8 2.5
    endloop
  endfacet
  facet normal 1 -0 0
    outer loop
      vertex 24.3 -17.8 2.5
      vertex 24.3 17.8 -2.5
      vertex 24.3 17.8 2.5
    endloop
  endfacet
  facet normal 1 0 0
    outer loop
      vertex 24.3 17.8 -2.5
      vertex 24.3 -17.8 2.5
      vertex 24.3 -17.8 -2.5
    endloop
  endfacet
  facet normal 0 1 -0
    outer loop
      vertex 24.3 17.8 -2.5
      vertex -24.3 17.8 2.5
      vertex 24.3 17.8 2.5
    endloop
  endfacet
  facet normal 0 1 0
    outer loop
      vertex -24.3 17.8 2.5
      vertex 24.3 17.8 -2.5
      vertex -24.3 17.8 -2.5
    endloop
  endfacet
  facet normal 0 0 -1
    outer loop
      vertex -24.3 -17.8 -2.5
      vertex 24.3 17.8 -2.5
      vertex 24.3 -17.8 -2.5
    endloop
  endfacet
  facet normal -0 0 -1
    outer loop
      vertex 24.3 17.8 -2.5
      vertex -24.3 -17.8 -2.5
      vertex -24.3 17.8 -2.5
    endloop
  endfacet
  facet normal 0 -1 0
    outer loop
      vertex -24.3 -17.8 -2.5
      vertex 24.3 -17.8 2.5
      vertex -24.3 -17.8 2.5
    endloop
  endfacet
  facet normal 0 -1 -0
    outer loop
      vertex 24.3 -17.8 2.5
      vertex -24.3 -17.8 -2.5
      vertex 24.3 -17.8 -2.5
    endloop
  endfacet
  facet normal 1 -0 0
    outer loop
      vertex -23.5 -17 2.5
      vertex -23.5 17 -1.7
      vertex -23.5 17 2.5
    endloop
  endfacet
  facet normal 1 0 0
    outer loop
      vertex -23.5 17 -1.7
      vertex -23.5 -17 2.5
      vertex -23.5 -17 -1.7
    endloop
  endfacet
  facet normal -1 0 0
    outer loop
      vertex 23.5 -17 -1.7
      vertex 23.5 17 2.5
      vertex 23.5 17 -1.7
    endloop
  endfacet
  facet normal -1 -0 0
    outer loop
      vertex 23.5 17 2.5
      vertex 23.5 -17 -1.7
      vertex 23.5 -17 2.5
    endloop
  endfacet
  facet normal 0 -1 0
    outer loop
      vertex -23.5 17 -1.7
      vertex 23.5 17 2.5
      vertex -23.5 17 2.5
    endloop
  endfacet
  facet normal 0 -1 -0
    outer loop
      vertex 23.5 17 2.5
      vertex -23.5 17 -1.7
      vertex 23.5 17 -1.7
    endloop
  endfacet
  facet normal -0 0 1
    outer loop
      vertex -23.5 17 -1.7
      vertex 23.5 -17 -1.7
      vertex 23.5 17 -1.7
    endloop
  endfacet
  facet normal 0 0 1
    outer loop
      vertex 23.5 -17 -1.7
      vertex -23.5 17 -1.7
      vertex -23.5 -17 -1.7
    endloop
  endfacet
  facet normal 0 1 -0
    outer loop
      vertex 23.5 -17 -1.7
      vertex -23.5 -17 2.5
      vertex 23.5 -17 2.5
    endloop
  endfacet
  facet normal 0 1 0
    outer loop
      vertex -23.5 -17 2.5
      vertex 23.5 -17 -1.7
      vertex -23.5 -17 -1.7
    endloop
  endfacet
endsolid OpenSCAD_Model
